<svg xmlns="http://www.w3.org/2000/svg" width="24" height="24" viewBox="0 0 24 24">
  <path d="M5.8 17.1q1.3-1 2.9-1.5 1.6-.6 3.3-.6 1.7 0 3.3.6 1.6.5 2.9 1.5.8-1 1.3-2.3.5-1.3.5-2.8 0-3.3-2.3-5.7Q15.3 4 12 4T6.3 6.3Q4 8.7 4 12q0 1.5.5 2.8Q5 16 5.8 17ZM12 13q-1.5 0-2.5-1t-1-2.5 1-2.5q1-1 2.5-1t2.5 1q1 1 1 2.5t-1 2.5q-1 1-2.5 1Zm0 9q-2 0-3.9-.8-1.8-.8-3.2-2.1-1.3-1.4-2.1-3.2Q2 14.1 2 12t.8-3.9q.8-1.8 2.1-3.2 1.4-1.3 3.2-2.1Q9.9 2 12 2t3.9.8q1.8.8 3.2 2.1 1.3 1.4 2.1 3.2.8 1.8.8 3.9t-.8 3.9q-.8 1.8-2.1 3.2-1.4 1.3-3.2 2.1-1.8.8-3.9.8Zm0-2q1.3 0 2.5-.4t2.1-1.1q-1-.7-2.1-1.1-1.2-.4-2.5-.4t-2.5.4q-1.2.4-2.1 1.1 1 .7 2.1 1.1 1.2.4 2.5.4Zm0-9q.7 0 1-.4.5-.5.5-1.1 0-.7-.4-1Q12.7 8 12 8q-.7 0-1 .4-.5.4-.5 1.1 0 .7.4 1 .4.5 1.1.5Zm0-1.5Zm0 9Z"/>
</svg>